<?xml version="1.0"?>
<svg xmlns="http://www.w3.org/2000/svg" xmlns:xlink="http://www.w3.org/1999/xlink" version="1.1" id="Capa_1" x="0px" y="0px" viewBox="0 0 512 512" style="enable-background:new 0 0 512 512;" xml:space="preserve" width="512px" height="512px" class=""><g><path style="fill:#1692FF" d="M497.231,211.692c8.157,0,14.769-6.613,14.769-14.769v-78.769c0-8.157-6.613-14.769-14.769-14.769  H14.769C6.613,103.385,0,109.997,0,118.154v78.769c0,8.157,6.613,14.769,14.769,14.769c24.431,0,44.308,19.876,44.308,44.308  S39.2,300.308,14.769,300.308C6.613,300.308,0,306.92,0,315.077v78.769c0,8.157,6.613,14.769,14.769,14.769h482.462  c8.157,0,14.769-6.613,14.769-14.769v-78.769c0-8.157-6.613-14.769-14.769-14.769c-24.431,0-44.308-19.876-44.308-44.308  S472.8,211.692,497.231,211.692z" data-original="#1692FF" class="active-path" data-old_color="#1692FF"/><g>
	<path style="fill:#541A8A" d="M157.538,192c8.157,0,14.769-6.613,14.769-14.769v-73.846h-29.538v73.846   C142.769,185.387,149.382,192,157.538,192z" data-original="#4F5EC6" class="" data-old_color="#4F5EC6"/>
	<path style="fill:#541A8A" d="M172.308,334.769c0-8.157-6.613-14.769-14.769-14.769c-8.157,0-14.769,6.613-14.769,14.769v73.846   h29.538V334.769z" data-original="#4F5EC6" class="" data-old_color="#4F5EC6"/>
	<path style="fill:#541A8A" d="M157.538,290.462c-8.157,0-14.769-6.613-14.769-14.769v-39.385c0-8.157,6.613-14.769,14.769-14.769   c8.157,0,14.769,6.613,14.769,14.769v39.385C172.308,283.849,165.695,290.462,157.538,290.462z" data-original="#4F5EC6" class="" data-old_color="#4F5EC6"/>
</g><path style="fill:#FF2D20" d="M497.231,103.385H256v305.231h241.231c8.157,0,14.769-6.613,14.769-14.769v-78.769  c0-8.157-6.613-14.769-14.769-14.769c-24.431,0-44.308-19.876-44.308-44.308s19.876-44.308,44.308-44.308  c8.157,0,14.769-6.613,14.769-14.769v-78.769C512,109.997,505.387,103.385,497.231,103.385z" data-original="#007FDD" class="" data-old_color="#007FDD"/></g> </svg>
