<?xml version="1.0" encoding="utf-8"?>
<!-- Generator: Adobe Illustrator 23.0.0, SVG Export Plug-In . SVG Version: 6.00 Build 0)  -->
<svg version="1.1" id="Layer_1" xmlns="http://www.w3.org/2000/svg" xmlns:xlink="http://www.w3.org/1999/xlink" x="0px" y="0px"
	 viewBox="0 0 50 52" style="enable-background:new 0 0 50 52;" xml:space="preserve">
<style type="text/css">
	.st0{fill-rule:evenodd;clip-rule:evenodd;fill:#FF2D20;}
</style>
<title>Logomark</title>
<path class="st0" d="M39.4,10.1l8.8,7.8c0.2,0.1,0.3,0.3,0.3,0.6l0,8.4c0,0,0,0.1,0,0.1c0,0,0,0,0,0c0,0.1-0.1,0.2-0.2,0.3
	c0,0,0,0,0,0c0,0-0.1,0.1-0.1,0.1L26,44.9c-0.2,0.1-0.5,0.1-0.7,0L1.8,28.3c-0.1,0-0.1-0.1-0.1-0.1c0,0,0,0,0,0c0,0,0-0.1-0.1-0.1
	c0,0,0,0,0-0.1c0,0,0-0.1,0-0.1c0,0,0-0.1,0-0.1c0,0,0-0.1,0-0.1l0,0l0.8-8.3c0-0.2,0.1-0.5,0.3-0.6l7.9-7.9l0,0c0,0,0.1,0,0.1,0
	c0,0,0,0,0.1,0c0,0,0.1,0,0.1,0c0,0,0,0,0.1,0c0,0,0.1,0,0.1,0c0,0,0,0,0.1,0c0.1,0,0.1,0,0.2,0.1L25,22.6l0.8,0.6L39.4,10.1z
	 M47.2,18.9l-7.3-7l0,6.8l7.4,7C47.3,25.8,47.2,18.9,47.2,18.9z M3.5,27.7l22.2,15.9l20.9-16.7l-7.4-7L26,31.7l0,0l0,0
	c0,0-0.1,0-0.1,0c0,0,0,0-0.1,0l0,0c0,0-0.1,0-0.1,0c0,0-0.1,0-0.1,0l0,0c0,0-0.1,0-0.1,0c0,0-0.1,0-0.1,0l0,0c0,0-0.1,0-0.1,0
	c0,0,0,0-0.1,0l0,0l-14.5-11L3.5,27.7L3.5,27.7z M3.6,19.8l-0.8,6.8l7.4-7l0-6.9L3.6,19.8L3.6,19.8z M25,28.5l0-4.4L11.5,12.6l0,7
	L25,30C25,30,25,28.5,25,28.5z M38.5,18.8l0-6.8L27.1,23.2l-0.8,0.5l0,6.3C26.4,30,38.5,18.8,38.5,18.8z"/>
</svg>
